<?xml version="1.0" encoding="UTF-8" standalone="no"?>
<!-- Created with Inkscape (http://www.inkscape.org/) -->

<svg
   xmlns:dc="http://purl.org/dc/elements/1.1/"
   xmlns:cc="http://creativecommons.org/ns#"
   xmlns:rdf="http://www.w3.org/1999/02/22-rdf-syntax-ns#"
   xmlns:svg="http://www.w3.org/2000/svg"
   xmlns="http://www.w3.org/2000/svg"
   xmlns:xlink="http://www.w3.org/1999/xlink"
   xmlns:sodipodi="http://sodipodi.sourceforge.net/DTD/sodipodi-0.dtd"
   xmlns:inkscape="http://www.inkscape.org/namespaces/inkscape"
   width="64"
   height="64"
   viewBox="0 0 64 64"
   version="1.1"
   id="SVGRoot"
   inkscape:version="0.92.4 5da689c313, 2019-01-14"
   sodipodi:docname="com.github.rickybas.date-countdown.svg">
  <sodipodi:namedview
     id="base"
     pagecolor="#ffffff"
     bordercolor="#666666"
     borderopacity="1.0"
     inkscape:pageopacity="0.0"
     inkscape:pageshadow="2"
     inkscape:zoom="3.7264527"
     inkscape:cx="19.785678"
     inkscape:cy="37.999683"
     inkscape:document-units="px"
     inkscape:current-layer="layer1"
     inkscape:document-rotation="0"
     showgrid="true"
     inkscape:window-width="2560"
     inkscape:window-height="1386"
     inkscape:window-x="0"
     inkscape:window-y="28"
     inkscape:window-maximized="1"
     inkscape:grid-bbox="true"
     showguides="true"
     inkscape:guide-bbox="true"
     inkscape:snap-grids="false"
     inkscape:snap-page="true"
     inkscape:snap-object-midpoints="true"
     inkscape:snap-center="true"
     inkscape:object-paths="false"
     inkscape:snap-intersection-paths="false">
    <inkscape:grid
       type="xygrid"
       id="grid946" />
    <sodipodi:guide
       position="128,9"
       orientation="0,1"
       id="guide948"
       inkscape:locked="false" />
    <sodipodi:guide
       position="128,114"
       orientation="0,1"
       id="guide950"
       inkscape:locked="false" />
  </sodipodi:namedview>
  <defs
     id="defs4748">
    <linearGradient
       inkscape:collect="always"
       id="linearGradient1101">
      <stop
         style="stop-color:#452981;stop-opacity:1"
         offset="0"
         id="stop1097" />
      <stop
         style="stop-color:#7239b3;stop-opacity:1"
         offset="1"
         id="stop1099" />
    </linearGradient>
    <marker
       inkscape:stockid="TriangleOutS"
       orient="auto"
       refY="0"
       refX="0"
       id="TriangleOutS"
       style="overflow:visible"
       inkscape:isstock="true">
      <path
         id="path1300"
         d="M 5.77,0 -2.88,5 V -5 Z"
         style="fill:#68b723;fill-opacity:1;fill-rule:evenodd;stroke:#68b723;stroke-width:1.00000003pt;stroke-opacity:1"
         transform="scale(0.2)"
         inkscape:connector-curvature="0" />
    </marker>
    <marker
       inkscape:stockid="TriangleInS"
       orient="auto"
       refY="0"
       refX="0"
       id="TriangleInS"
       style="overflow:visible"
       inkscape:isstock="true">
      <path
         id="path1291"
         d="M 5.77,0 -2.88,5 V -5 Z"
         style="fill:#68b723;fill-opacity:1;fill-rule:evenodd;stroke:#68b723;stroke-width:1.00000003pt;stroke-opacity:1"
         transform="scale(-0.2)"
         inkscape:connector-curvature="0" />
    </marker>
    <marker
       inkscape:stockid="TriangleInM"
       orient="auto"
       refY="0"
       refX="0"
       id="TriangleInM"
       style="overflow:visible"
       inkscape:isstock="true">
      <path
         id="path1288"
         d="M 5.77,0 -2.88,5 V -5 Z"
         style="fill:#68b723;fill-opacity:1;fill-rule:evenodd;stroke:#68b723;stroke-width:1.00000003pt;stroke-opacity:1"
         transform="scale(-0.4)"
         inkscape:connector-curvature="0" />
    </marker>
    <marker
       inkscape:stockid="Arrow2Mend"
       orient="auto"
       refY="0"
       refX="0"
       id="Arrow2Mend"
       style="overflow:visible"
       inkscape:isstock="true">
      <path
         id="path1179"
         style="fill:#68b723;fill-opacity:1;fill-rule:evenodd;stroke:#68b723;stroke-width:0.625;stroke-linejoin:round;stroke-opacity:1"
         d="M 8.7185878,4.0337352 -2.2072895,0.01601326 8.7185884,-4.0017078 c -1.7454984,2.3720609 -1.7354408,5.6174519 -6e-7,8.035443 z"
         transform="scale(-0.6)"
         inkscape:connector-curvature="0" />
    </marker>
    <linearGradient
       id="linearGradient980">
      <stop
         id="stop5250"
         style="stop-color:#5fb1f2;stop-opacity:1"
         offset="0" />
      <stop
         id="stop5252"
         style="stop-color:#0c4eb5;stop-opacity:1"
         offset="1" />
    </linearGradient>
    <linearGradient
       id="linearGradient980-9">
      <stop
         offset="0"
         style="stop-color:#a2a3a5;stop-opacity:1"
         id="stop972" />
      <stop
         offset="1"
         style="stop-color:#abacae;stop-opacity:0.83236992"
         id="stop978" />
    </linearGradient>
    <linearGradient
       id="linearGradient23419">
      <stop
         offset="0"
         style="stop-color:#000000;stop-opacity:1"
         id="stop23421" />
      <stop
         offset="1"
         style="stop-color:#000000;stop-opacity:0"
         id="stop23423" />
    </linearGradient>
    <linearGradient
       y2="40.495617"
       x2="71.204407"
       y1="15.369057"
       x1="71.204407"
       gradientTransform="matrix(1.7553612,0,0,1.7553612,-94.69513,-16.91647)"
       gradientUnits="userSpaceOnUse"
       id="linearGradient6927"
       xlink:href="#linearGradient4806-2-9" />
    <linearGradient
       id="linearGradient4806-2-9">
      <stop
         offset="0"
         style="stop-color:#ffffff;stop-opacity:1"
         id="stop4808-4-6" />
      <stop
         offset="0.42447853"
         style="stop-color:#ffffff;stop-opacity:0.23529412"
         id="stop4810-0-9" />
      <stop
         offset="0.82089913"
         style="stop-color:#ffffff;stop-opacity:0.15686275"
         id="stop4812-8-7" />
      <stop
         offset="1"
         style="stop-color:#ffffff;stop-opacity:0.39215687"
         id="stop4814-0-7" />
    </linearGradient>
    <linearGradient
       y2="40.495617"
       x2="71.204407"
       y1="15.369057"
       x1="71.204407"
       gradientTransform="matrix(1.9186506,0,0,-1.9186506,-106.48073,85.46685)"
       gradientUnits="userSpaceOnUse"
       id="linearGradient6923"
       xlink:href="#linearGradient4806-2-9" />
    <linearGradient
       y2="210"
       x2="368"
       y1="98"
       x1="304"
       gradientTransform="matrix(0.5625,0,0,0.5625,-221,-118.62498)"
       gradientUnits="userSpaceOnUse"
       id="linearGradient6919"
       xlink:href="#linearGradient4251" />
    <linearGradient
       id="linearGradient4251">
      <stop
         style="stop-color:#cccccc;stop-opacity:1"
         offset="0"
         id="stop4259" />
      <stop
         id="stop6460"
         offset="0.51999998"
         style="stop-color:#f4f4f4;stop-opacity:1" />
      <stop
         id="stop4183"
         offset="1"
         style="stop-color:#c1c1c1;stop-opacity:1" />
    </linearGradient>
    <linearGradient
       gradientTransform="matrix(2.3268746,0,0,2.3268746,-135.94475,-32.84278)"
       gradientUnits="userSpaceOnUse"
       xlink:href="#linearGradient4806-2-9"
       id="linearGradient3293"
       y2="40.495617"
       x2="71.204407"
       y1="15.369057"
       x1="71.204407" />
    <linearGradient
       gradientTransform="translate(-191.5,-148)"
       gradientUnits="userSpaceOnUse"
       y2="208"
       x2="252"
       y1="152"
       x1="196"
       id="linearGradient6915"
       xlink:href="#linearGradient4140" />
    <linearGradient
       id="linearGradient4140">
      <stop
         style="stop-color:#f9c440;stop-opacity:1"
         offset="0"
         id="stop4142" />
      <stop
         id="stop5784"
         offset="0.50190115"
         style="stop-color:#fff394;stop-opacity:1" />
      <stop
         style="stop-color:#f9c440;stop-opacity:1"
         offset="1"
         id="stop4144" />
    </linearGradient>
    <radialGradient
       r="62.769119"
       fy="185.29727"
       fx="99.189415"
       cy="185.29727"
       cx="99.189415"
       gradientTransform="matrix(0.3823536,7.5555777e-8,-1.8372241e-8,0.1115198,-5.9254271,36.335849)"
       gradientUnits="userSpaceOnUse"
       id="radialGradient3300-9"
       xlink:href="#linearGradient23419" />
    <radialGradient
       r="62.769119"
       fy="185.29727"
       fx="99.189415"
       cy="185.29727"
       cx="99.189415"
       gradientTransform="matrix(0.2549024,5.3967361e-8,-1.2248161e-8,0.07965545,6.7163816,44.240666)"
       gradientUnits="userSpaceOnUse"
       id="radialGradient4192"
       xlink:href="#linearGradient23419" />
    <linearGradient
       id="linearGradient4658">
      <stop
         id="stop4660"
         style="stop-color:#fafafa;stop-opacity:1;"
         offset="0" />
      <stop
         id="stop4662"
         style="stop-color:#e2e1de;stop-opacity:1;"
         offset="1" />
    </linearGradient>
    <radialGradient
       cx="4.9929786"
       cy="43.5"
       r="2.5"
       fx="4.9929786"
       fy="43.5"
       id="radialGradient3337-2-2-8"
       xlink:href="#linearGradient3688-166-749-4-0-3-8-1"
       gradientUnits="userSpaceOnUse"
       gradientTransform="matrix(2.003784,0,0,1.4,27.98813,-17.4)" />
    <linearGradient
       id="linearGradient3688-166-749-4-0-3-8-1">
      <stop
         id="stop2883-4-0-1-8-1"
         style="stop-color:#181818;stop-opacity:1"
         offset="0" />
      <stop
         id="stop2885-9-2-9-6-6"
         style="stop-color:#181818;stop-opacity:0"
         offset="1" />
    </linearGradient>
    <radialGradient
       cx="4.9929786"
       cy="43.5"
       r="2.5"
       fx="4.9929786"
       fy="43.5"
       id="radialGradient3339-1-4-96"
       xlink:href="#linearGradient3688-166-749-4-0-3-8-1"
       gradientUnits="userSpaceOnUse"
       gradientTransform="matrix(2.003784,0,0,1.4,-20.01187,-104.4)" />
    <linearGradient
       id="linearGradient3702-501-757-8-4-1-1-4">
      <stop
         id="stop2895-8-9-9-1-7"
         style="stop-color:#181818;stop-opacity:0"
         offset="0" />
      <stop
         id="stop2897-7-8-7-7-6"
         style="stop-color:#181818;stop-opacity:1"
         offset="0.5" />
      <stop
         id="stop2899-4-5-1-5-0"
         style="stop-color:#181818;stop-opacity:0"
         offset="1" />
    </linearGradient>
    <linearGradient
       x1="25.058096"
       y1="47.027729"
       x2="25.058096"
       y2="39.999443"
       id="linearGradient5515"
       xlink:href="#linearGradient3702-501-757-8-4-1-1-4"
       gradientUnits="userSpaceOnUse" />
    <linearGradient
       id="linearGradient3924-2-2-5-8-0">
      <stop
         offset="0"
         style="stop-color:#ffffff;stop-opacity:1"
         id="stop3926-9-4-9-6-6" />
      <stop
         offset="0.06316455"
         style="stop-color:#ffffff;stop-opacity:0.23529412"
         id="stop3928-9-8-6-5-1" />
      <stop
         offset="0.95056331"
         style="stop-color:#ffffff;stop-opacity:0.15686275"
         id="stop3930-3-5-1-7-98" />
      <stop
         offset="1"
         style="stop-color:#ffffff;stop-opacity:0.39215687"
         id="stop3932-8-0-4-8-60" />
    </linearGradient>
    <linearGradient
       xlink:href="#linearGradient3924-2-2-5-8-0"
       id="linearGradient3681"
       gradientUnits="userSpaceOnUse"
       gradientTransform="matrix(2.8648648,0,0,2.8648648,-4.7567512,-3.756748)"
       x1="23.99999"
       y1="4.999989"
       x2="23.99999"
       y2="43" />
    <linearGradient
       xlink:href="#linearGradient3924-2-2-5-8-0"
       id="linearGradient3681-6"
       gradientUnits="userSpaceOnUse"
       gradientTransform="matrix(2.8648648,0,0,2.8648648,-114.75675,12.243252)"
       x1="23.99999"
       y1="4.999989"
       x2="23.99999"
       y2="43" />
    <linearGradient
       id="linearGradient3242-7-3-8-0-4-58-06">
      <stop
         id="stop3244-5-8-5-6-4-3-8"
         style="stop-color:#8cd5ff;stop-opacity:1"
         offset="0" />
      <stop
         id="stop3246-9-5-1-5-3-0-7"
         style="stop-color:#64baff;stop-opacity:1"
         offset="0.26238" />
      <stop
         id="stop3248-7-2-0-7-5-35-9"
         style="stop-color:#3689e6;stop-opacity:1"
         offset="0.66093999" />
      <stop
         id="stop3250-8-2-8-5-6-40-4"
         style="stop-color:#0d52bf;stop-opacity:1"
         offset="1" />
    </linearGradient>
    <linearGradient
       xlink:href="#linearGradient4658"
       id="linearGradient4556-9"
       gradientUnits="userSpaceOnUse"
       gradientTransform="matrix(2.5807734,0,0,2.4746518,2.0614434,-1.133976)"
       x1="25.132275"
       y1="15.499894"
       x2="25.132275"
       y2="48.395687" />
    <linearGradient
       gradientTransform="matrix(2,0,0,2,0,1)"
       xlink:href="#linearGradient3242-7-3-8-0-4-58-06"
       id="linearGradient4654"
       x1="24.169817"
       y1="-12.24244"
       x2="24.169817"
       y2="48.933952"
       gradientUnits="userSpaceOnUse" />
    <linearGradient
       xlink:href="#linearGradient23419"
       id="linearGradient4656"
       gradientUnits="userSpaceOnUse"
       gradientTransform="matrix(2.8,0,0,1,-3.1999972,21.000002)"
       x1="23.954144"
       y1="15.999304"
       x2="23.954144"
       y2="19.963179" />
    <linearGradient
       gradientTransform="matrix(0.09153846,0,0,0.02058823,-1.084616,49.45142)"
       gradientUnits="userSpaceOnUse"
       xlink:href="#linearGradient5048"
       id="linearGradient3128"
       y2="609.50507"
       x2="302.85715"
       y1="366.64789"
       x1="302.85715" />
    <linearGradient
       id="linearGradient5048">
      <stop
         offset="0"
         style="stop-color:#000000;stop-opacity:0"
         id="stop5050" />
      <stop
         offset="0.5"
         style="stop-color:#000000;stop-opacity:1"
         id="stop5056" />
      <stop
         offset="1"
         style="stop-color:#000000;stop-opacity:0"
         id="stop5052" />
    </linearGradient>
    <radialGradient
       gradientTransform="matrix(-0.03132632,0,0,0.02058823,28.779136,49.45142)"
       gradientUnits="userSpaceOnUse"
       xlink:href="#linearGradient23419"
       id="radialGradient3060"
       fy="486.64789"
       fx="605.71429"
       r="117.14286"
       cy="486.64789"
       cx="605.71429" />
    <radialGradient
       gradientTransform="matrix(0.03132633,0,0,0.02058823,35.220859,49.45142)"
       gradientUnits="userSpaceOnUse"
       xlink:href="#linearGradient23419"
       id="radialGradient3057"
       fy="486.64789"
       fx="605.71429"
       r="117.14286"
       cy="486.64789"
       cx="605.71429" />
    <linearGradient
       id="linearGradient3600-9">
      <stop
         offset="0"
         style="stop-color:#f4f4f4;stop-opacity:1"
         id="stop3602-3" />
      <stop
         offset="1"
         style="stop-color:#dbdbdb;stop-opacity:1"
         id="stop3604-7" />
    </linearGradient>
    <linearGradient
       gradientTransform="matrix(1.3142827,0,0,1.2602393,0.4572141,-2.1793201)"
       gradientUnits="userSpaceOnUse"
       xlink:href="#linearGradient3600-9"
       id="linearGradient3054"
       y2="47.013336"
       x2="25.132275"
       y1="0.98520643"
       x1="25.132275" />
    <linearGradient
       id="linearGradient3977-4">
      <stop
         offset="0"
         style="stop-color:#ffffff;stop-opacity:1"
         id="stop3979-7" />
      <stop
         offset="0.01214366"
         style="stop-color:#ffffff;stop-opacity:0.23529412"
         id="stop3981-6" />
      <stop
         offset="0.98781353"
         style="stop-color:#ffffff;stop-opacity:0.15686275"
         id="stop3983-5" />
      <stop
         offset="1"
         style="stop-color:#ffffff;stop-opacity:0.39215687"
         id="stop3985-6" />
    </linearGradient>
    <linearGradient
       gradientTransform="matrix(1.2162162,0,0,1.5405376,2.8108184,-6.9729501)"
       gradientUnits="userSpaceOnUse"
       xlink:href="#linearGradient3977-4"
       id="linearGradient3051"
       y2="42.100208"
       x2="23.99999"
       y1="5.8641062"
       x1="23.99999" />
    <linearGradient
       id="linearGradient3104-6">
      <stop
         offset="0"
         style="stop-color:#000000;stop-opacity:0.31782946"
         id="stop3106-3" />
      <stop
         offset="1"
         style="stop-color:#000000;stop-opacity:0.24031007"
         id="stop3108-9" />
    </linearGradient>
    <linearGradient
       gradientTransform="matrix(1.0843523,0,0,1.1997367,79.550862,-4.1628601)"
       gradientUnits="userSpaceOnUse"
       xlink:href="#linearGradient3104-6"
       id="linearGradient3048"
       y2="2.9062471"
       x2="-51.786404"
       y1="50.786446"
       x1="-51.786404" />
    <radialGradient
       cx="4.9929786"
       cy="43.5"
       r="2.5"
       fx="4.9929786"
       fy="43.5"
       id="radialGradient4093"
       xlink:href="#linearGradient3688-166-749-4-0-3-8-1"
       gradientUnits="userSpaceOnUse"
       gradientTransform="matrix(2.003784,0,0,1.4,27.98813,-17.4)" />
    <radialGradient
       cx="4.9929786"
       cy="43.5"
       r="2.5"
       fx="4.9929786"
       fy="43.5"
       id="radialGradient4095"
       xlink:href="#linearGradient3688-166-749-4-0-3-8-1"
       gradientUnits="userSpaceOnUse"
       gradientTransform="matrix(2.003784,0,0,1.4,-20.01187,-104.4)" />
    <linearGradient
       id="linearGradient3242-7-3-8-0-4-58-06-3">
      <stop
         id="stop3244-5-8-5-6-4-3-8-6"
         style="stop-color:#cdf87e;stop-opacity:1"
         offset="0" />
      <stop
         id="stop3246-9-5-1-5-3-0-7-7"
         style="stop-color:#a2e34f;stop-opacity:1"
         offset="0.26238" />
      <stop
         id="stop3248-7-2-0-7-5-35-9-5"
         style="stop-color:#68b723;stop-opacity:1"
         offset="0.66093999" />
      <stop
         id="stop3250-8-2-8-5-6-40-4-3"
         style="stop-color:#1d7e0d;stop-opacity:1"
         offset="1" />
    </linearGradient>
    <linearGradient
       x1="23.99999"
       y1="4.999989"
       x2="23.99999"
       y2="43"
       id="linearGradient3202"
       xlink:href="#linearGradient3924-2-2-5-8-0"
       gradientUnits="userSpaceOnUse"
       gradientTransform="matrix(2.7297298,0,0,2.7297298,-0.6691175,-0.5976005)" />
    <radialGradient
       cx="-4.0287771"
       cy="93.467628"
       r="35.338131"
       fx="-4.0287771"
       fy="93.467628"
       id="radialGradient3213"
       xlink:href="#linearGradient23419"
       gradientUnits="userSpaceOnUse"
       gradientTransform="matrix(1.5563924,0,0,0.16978827,71.114755,100.04618)" />
    <linearGradient
       x1="24.169817"
       y1="-12.24244"
       x2="24.169817"
       y2="48.933952"
       id="linearGradient3278"
       xlink:href="#linearGradient3242-7-3-8-0-4-58-06"
       gradientUnits="userSpaceOnUse"
       gradientTransform="matrix(1.8727272,0,0,1.9230769,3.0727266,5.8456231)" />
    <linearGradient
       x1="23.954144"
       y1="15.999304"
       x2="23.954144"
       y2="19.963179"
       id="linearGradient3285"
       xlink:href="#linearGradient23419"
       gradientUnits="userSpaceOnUse"
       gradientTransform="matrix(2.6000001,0,0,0.75,2.4444032,26.914082)" />
    <linearGradient
       x1="25.132275"
       y1="15.499894"
       x2="25.132275"
       y2="48.395687"
       id="linearGradient3288-4"
       xlink:href="#linearGradient4658"
       gradientUnits="userSpaceOnUse"
       gradientTransform="matrix(2.3698469,0,0,2.2723986,7.9680823,4.1852302)" />
    <linearGradient
       x1="23.99999"
       y1="4.999989"
       x2="23.99999"
       y2="43"
       id="linearGradient4108"
       xlink:href="#linearGradient3924-2-2-5-8-0"
       gradientUnits="userSpaceOnUse"
       gradientTransform="matrix(2.7297298,0,0,2.7297298,5.7431759,1.6898958)" />
    <linearGradient
       x1="23.99999"
       y1="4.999989"
       x2="23.99999"
       y2="43"
       id="linearGradient4148"
       xlink:href="#linearGradient3924-2-2-5-8-0"
       gradientUnits="userSpaceOnUse"
       gradientTransform="matrix(2.7297298,0,0,2.7297298,-2.5135182,0.4877902)" />
    <mask
       id="mask2807"
       maskUnits="userSpaceOnUse">
      <path
         inkscape:connector-curvature="0"
         d="m 17.11818,14.499469 c -3.112472,0 -5.618181,2.573077 -5.618181,5.769231 V 39.499469 H 114.5 V 20.2687 c 0,-3.196154 -2.50571,-5.769231 -5.61819,-5.769231 z"
         id="path2809"
         style="color:#000000;display:inline;overflow:visible;visibility:visible;fill:url(#linearGradient3278);fill-opacity:1;fill-rule:nonzero;stroke:none;stroke-width:0.99999994;marker:none;enable-background:accumulate" />
    </mask>
    <linearGradient
       inkscape:collect="always"
       xlink:href="#linearGradient1101"
       id="linearGradient1103"
       x1="93.476067"
       y1="211.39752"
       x2="52.260681"
       y2="14"
       gradientUnits="userSpaceOnUse"
       gradientTransform="matrix(0.52926255,0,0,0.52926255,-1.8706447,60.516053)" />
    <linearGradient
       id="a"
       gradientTransform="matrix(0.93656781,0,0,0.94442665,143.00429,52.34307)"
       gradientUnits="userSpaceOnUse"
       x1="41.749325"
       x2="41.357147"
       y1="226.20387"
       y2="102.25676">
      <stop
         offset="0"
         stop-color="#ff5335"
         id="stop829" />
      <stop
         offset="1"
         stop-color="#ff8f36"
         id="stop831" />
    </linearGradient>
    <linearGradient
       gradientTransform="matrix(0.2261032,0,0,0.21820358,141.65758,-116.03208)"
       y2="219.42073"
       y1="685.24243"
       xlink:href="#a-0"
       x2="-488.26794"
       x1="-488.26794"
       gradientUnits="userSpaceOnUse"
       id="b-1" />
    <linearGradient
       id="a-0">
      <stop
         id="stop2-5"
         stop-color="#3889e9"
         offset="0" />
      <stop
         id="stop4-1"
         stop-color="#5ea5fb"
         offset="1" />
    </linearGradient>
    <linearGradient
       gradientTransform="matrix(0.2261032,0,0,0.21820358,141.65758,-116.03208)"
       y2="138.00441"
       y1="683.66272"
       xlink:href="#a-0"
       x2="-1483.1302"
       x1="-1483.1302"
       gradientUnits="userSpaceOnUse"
       id="g" />
    <linearGradient
       gradientTransform="matrix(0.2261032,0,0,0.21820358,141.65758,-116.03208)"
       y2="233.7009"
       y1="715.89105"
       xlink:href="#a-0"
       x2="-0.51856434"
       x1="-0.51856434"
       gradientUnits="userSpaceOnUse"
       id="i" />
    <linearGradient
       gradientTransform="matrix(0.2261032,0,0,0.21820358,141.65758,-116.03208)"
       y2="193.3761"
       y1="675.56622"
       xlink:href="#a-0"
       x2="623.44183"
       x1="623.44183"
       gradientUnits="userSpaceOnUse"
       id="h" />
    <linearGradient
       gradientTransform="matrix(0.2261032,0,0,0.21820358,141.65758,-116.03208)"
       y2="165.61009"
       y1="647.80023"
       xlink:href="#a-0"
       x2="129.60733"
       x1="129.60733"
       gradientUnits="userSpaceOnUse"
       id="c" />
    <linearGradient
       gradientTransform="matrix(0.24287425,0,0,0.23438868,147.36438,-127.47933)"
       y2="172.70172"
       y1="543.65045"
       x2="-359.71036"
       x1="-309.65451"
       gradientUnits="userSpaceOnUse"
       id="j">
      <stop
         style="stop-color:#5fb1f2;stop-opacity:1"
         id="stop27"
         stop-color="#5043e2"
         offset="0" />
      <stop
         style="stop-color:#85caf2;stop-opacity:1"
         id="stop29"
         stop-color="#418dff"
         offset="1" />
    </linearGradient>
    <linearGradient
       y2="-34.627598"
       y1="549.49017"
       x2="268.79379"
       x1="268.79379"
       gradientUnits="userSpaceOnUse"
       gradientTransform="matrix(0.22208157,0,0,0.21399793,5.3058525,-69.589766)"
       id="k">
      <stop
         offset="0"
         stop-color="#fc5500"
         id="stop6053"
         style="stop-color:#f37329;stop-opacity:1" />
      <stop
         style="stop-color:#ffa154;stop-opacity:1"
         id="stop34"
         stop-color="#ffc200"
         offset="1" />
    </linearGradient>
    <linearGradient
       gradientTransform="matrix(0.2261032,0,0,0.21820358,141.65758,-116.03208)"
       y2="299.77203"
       y1="349.62265"
       x2="-475.29489"
       x1="-563.07599"
       gradientUnits="userSpaceOnUse"
       id="d">
      <stop
         id="stop9-1"
         stop-color="#ec3a00"
         offset="0" />
      <stop
         id="stop11"
         stop-opacity=".015686"
         stop-color="#ffb900"
         offset="1" />
    </linearGradient>
    <linearGradient
       gradientTransform="matrix(0.2261032,0,0,0.21820358,141.65758,-116.03208)"
       y2="381.17795"
       y1="381.17795"
       x2="-345.96222"
       x1="-419.89294"
       gradientUnits="userSpaceOnUse"
       id="e">
      <stop
         id="stop14"
         stop-color="#de4000"
         offset="0" />
      <stop
         id="stop16"
         stop-color="#fab600"
         offset="1" />
    </linearGradient>
    <linearGradient
       y2="241.34654"
       y1="196.19754"
       x2="-132.19847"
       x1="-262.73923"
       gradientUnits="userSpaceOnUse"
       gradientTransform="matrix(0.29658101,0,0,0.28865918,114.78391,-73.894691)"
       id="f">
      <stop
         id="stop19"
         stop-color="#f24d00"
         offset="0" />
      <stop
         id="stop21"
         stop-color="#ffb000"
         offset="1" />
    </linearGradient>
    <linearGradient
       y2="-33.617302"
       y1="486.26266"
       x2="477.79111"
       x1="516.3222"
       gradientUnits="userSpaceOnUse"
       gradientTransform="matrix(0.09006435,0.08882134,-0.09189757,0.08678608,71.589137,-55.892463)"
       id="l">
      <stop
         id="stop37"
         stop-opacity=".04"
         stop-color="#fc5500"
         offset="0" />
      <stop
         id="stop39"
         stop-color="#fd8b00"
         offset=".45650545" />
      <stop
         id="stop41"
         stop-color="#ffc200"
         offset="1" />
    </linearGradient>
    <mask
       id="mask6094"
       maskUnits="userSpaceOnUse">
      <path
         inkscape:connector-curvature="0"
         style="fill:#ffffff;fill-opacity:1;stroke:none;stroke-width:1;stroke-linecap:round;stroke-linejoin:round;stroke-miterlimit:4;stroke-dasharray:none;stroke-opacity:1"
         d="m 83.599609,7.703125 c -2.476762,3.510419 -4.329044,6.703216 -5.675781,9.636719 A 51.989471,50.173058 0 0 0 66.091797,15.96875 51.989471,50.173058 0 0 0 26.390625,33.751953 c -1.946011,-1.980696 -4.070824,-4.925063 -4.207031,-8.34375 0,0 -0.0092,0.0085 -0.02734,0.02148 -0.0023,-0.03964 -0.0076,-0.07755 -0.0098,-0.117188 0,0 -6.537127,4.840836 -5.558593,18.041016 -0.0023,0.21133 -0.007,0.413343 -0.01367,0.609375 -1.769336,2.312552 -2.647556,4.256427 -2.712891,4.685547 -1.567343,3.075963 -3.15849,7.705107 -4.4531249,14.732421 0,0 0.9053489,-2.766648 2.7226559,-5.90039 C 10.847547,71.316311 11.988594,80.39543 19.25,92.826172 35.983737,117.93068 62.390937,122.56859 83.976562,114.97656 105.56218,107.38453 122.32607,87.563746 119.77344,63.751953 121.06354,49.677347 105.45832,28.427531 98.955078,18.048828 c -1.641957,1.158722 -2.5625,4.007813 -2.5625,4.007813 C 86.719173,14.667194 87.664741,12.909257 83.599609,7.703125 Z"
         id="path6096" />
    </mask>
    <linearGradient
       y2="-34.627598"
       x2="268.79379"
       y1="549.49017"
       x1="268.79379"
       gradientTransform="matrix(0.22208157,0,0,0.21399793,5.3058525,-69.589766)"
       gradientUnits="userSpaceOnUse"
       id="linearGradient1529"
       xlink:href="#k"
       inkscape:collect="always" />
    <mask
       id="mask1525"
       maskUnits="userSpaceOnUse">
      <path
         style="fill:url(#linearGradient1529);stroke-width:0.23859373"
         inkscape:connector-curvature="0"
         id="path1527"
         d="m 123.85775,-20.294456 c 1.38579,-15.11858 -15.37676,-37.944783 -22.36238,-49.093318 -1.763745,1.244669 -2.753425,4.306618 -2.753425,4.306618 -10.390923,-7.937554 -9.375626,-9.826671 -13.742287,-15.418964 -32.370256,45.879709 32.959942,42.15531 4.900025,79.687197 -0.460587,0.279279 -0.446471,-2.199238 -2.84203,-5.772512 C 84.012377,7.4301 64.343363,16.437992 49.158698,2.900469 53.654294,3.843356 62.189111,2.75376 65.966933,0.045516 c 0.0048,-0.0023 0.0096,-0.0069 0.01437,-0.0093 4.102504,-2.703012 6.531857,-4.676719 8.713573,-4.209777 2.183082,0.469513 3.636376,-1.641577 1.940788,-3.514487 -1.697602,-1.876542 -5.819218,-4.455638 -11.395683,-3.05032 -3.932619,0.992523 -8.806415,5.185382 -16.245258,0.939879 -5.709713,-3.260037 -6.247391,-5.96819 -6.298008,-7.843875 0.14075,-0.664881 0.318449,-1.285704 0.529215,-1.853007 0.657136,-1.768688 2.650096,-2.302412 3.758518,-2.723769 1.880362,0.311164 3.500204,0.876315 5.201356,1.717128 0.02161,-0.545478 0.02901,-1.269646 -0.0021,-2.090979 0.163049,-0.312229 0.06211,-1.254028 -0.199256,-2.405336 -0.150582,-1.148952 -0.395534,-2.337726 -0.781076,-3.420749 0.0015,-2.14e-4 0.0025,-0.0012 0.0025,-0.0016 0.0072,-0.0024 0.012,-0.0046 0.01918,-0.007 0.0096,-0.0046 0.01678,-0.01158 0.02398,-0.02082 0.0015,-0.0024 0.0025,-0.0046 0.0048,-0.0046 0.0096,-0.01388 0.01678,-0.03031 0.02398,-0.05207 0.117972,-0.514655 1.390689,-1.507386 2.974805,-2.574605 1.419532,-0.956355 3.088483,-1.972411 4.40321,-2.758848 1.163688,-0.696355 2.049571,-1.212957 2.237916,-1.34842 0.07122,-0.05206 0.157054,-0.112689 0.250279,-0.18234 0.01678,-0.01388 0.03477,-0.02592 0.05252,-0.03957 0.012,-0.0092 0.02157,-0.0162 0.03308,-0.02499 0.625606,-0.480205 1.559685,-1.387341 1.755559,-3.296647 4.85e-4,-0.0046 0.0012,-0.0092 0.0015,-0.01388 0.0048,-0.056 0.0096,-0.112924 0.01438,-0.171005 0.0025,-0.04026 0.0048,-0.08099 0.0096,-0.12218 0.0017,-0.0317 0.0048,-0.06317 0.0048,-0.09533 0.0025,-0.07544 0.0048,-0.152261 0.0072,-0.230013 0,-0.0046 2.16e-4,-0.0092 4.85e-4,-0.01388 0.0025,-0.184889 -7.28e-4,-0.377481 -0.012,-0.579728 -0.0072,-0.112925 -0.01437,-0.214972 -0.03429,-0.307718 -9.71e-4,-0.0046 -0.0025,-0.0092 -0.0025,-0.0162 -0.0021,-0.0092 -0.0048,-0.01852 -0.0072,-0.02707 -0.0048,-0.0162 -0.0096,-0.03262 -0.01438,-0.0479 -7.28e-4,-0.0021 -0.0015,-0.0046 -0.0021,-0.0046 -0.0048,-0.01852 -0.012,-0.03517 -0.01919,-0.05183 -4.85e-4,-7.02e-4 -4.85e-4,-0.0012 -7.28e-4,-0.0018 -0.202851,-0.457733 -0.962302,-0.630658 -4.099411,-0.682006 -0.0025,-2.08e-4 -0.0048,-2.08e-4 -0.0096,-2.08e-4 -1.280079,-0.02084 -2.953921,-0.02084 -5.147649,-0.01388 -3.845771,0.01388 -5.971547,-3.62276 -6.65,-5.030229 0.930075,-4.955324 3.617698,-8.486517 8.03292,-10.881142 0.08344,-0.04535 0.06714,-0.08284 -0.03166,-0.10899 0.863248,-0.503317 -10.43849,-0.01388 -15.636751,6.357241 -4.613734,-1.105077 -8.634976,-1.030609 -12.100558,-0.246951 -0.665575,-0.01852 -1.494823,-0.09788 -2.479326,-0.29552 -2.304986,-2.012445 -5.60445,-5.729153 -5.781214,-10.16577 0,0 -0.0096,0.0092 -0.02901,0.02314 -0.0025,-0.04258 -0.0072,-0.0847 -0.0096,-0.127273 0,0 -7.022878,5.201005 -5.971762,19.380299 -0.0025,0.227005 -0.0072,0.444266 -0.01438,0.654839 -1.900575,2.484084 -2.843767,4.572058 -2.913949,5.033007 -1.6835991,3.30412 -3.3925201,8.276362 -4.783184,15.824922 0,0 0.97249,-2.97199 2.9245944,-6.338175 C 6.8517177,-12.16827 8.0779316,-2.415226 15.877947,10.937557 33.852897,37.90417 62.218844,42.88516 85.405567,34.73 108.59229,26.57483 126.59979,5.283511 123.85782,-20.294503 Z" />
    </mask>
    <clipPath
       id="clipPath1517"
       clipPathUnits="userSpaceOnUse">
      <ellipse
         ry="53.894608"
         rx="55.845753"
         cx="66.194397"
         cy="62.272522"
         id="ellipse1519"
         style="fill:url(#linearGradient1521);stroke-width:0.23859373" />
    </clipPath>
    <linearGradient
       y2="172.70172"
       x2="-359.71036"
       y1="543.65045"
       x1="-309.65451"
       gradientTransform="matrix(0.24287425,0,0,0.23438868,147.36438,32.52067)"
       gradientUnits="userSpaceOnUse"
       id="linearGradient1521"
       xlink:href="#j"
       inkscape:collect="always" />
    <clipPath
       id="clipPath1524"
       clipPathUnits="userSpaceOnUse">
      <path
         d="m 123.85775,-20.294456 c 1.38579,-15.11858 -15.37676,-37.944783 -22.36238,-49.093318 -1.763745,1.244669 -2.753425,4.306618 -2.753425,4.306618 -10.390923,-7.937554 -9.375626,-9.826671 -13.742287,-15.418964 -32.370256,45.879709 32.959942,42.15531 4.900025,79.687197 -0.460587,0.279279 -0.446471,-2.199238 -2.84203,-5.772512 C 84.012377,7.4301 64.343363,16.437992 49.158698,2.900469 53.654294,3.843356 62.189111,2.75376 65.966933,0.045516 c 0.0048,-0.0023 0.0096,-0.0069 0.01437,-0.0093 4.102504,-2.703012 6.531857,-4.676719 8.713573,-4.209777 2.183082,0.469513 3.636376,-1.641577 1.940788,-3.514487 -1.697602,-1.876542 -5.819218,-4.455638 -11.395683,-3.05032 -3.932619,0.992523 -8.806415,5.185382 -16.245258,0.939879 -5.709713,-3.260037 -6.247391,-5.96819 -6.298008,-7.843875 0.14075,-0.664881 0.318449,-1.285704 0.529215,-1.853007 0.657136,-1.768688 2.650096,-2.302412 3.758518,-2.723769 1.880362,0.311164 3.500204,0.876315 5.201356,1.717128 0.02161,-0.545478 0.02901,-1.269646 -0.0021,-2.090979 0.163049,-0.312229 0.06211,-1.254028 -0.199256,-2.405336 -0.150582,-1.148952 -0.395534,-2.337726 -0.781076,-3.420749 0.0015,-2.14e-4 0.0025,-0.0012 0.0025,-0.0016 0.0072,-0.0024 0.012,-0.0046 0.01918,-0.007 0.0096,-0.0046 0.01678,-0.01158 0.02398,-0.02082 0.0015,-0.0024 0.0025,-0.0046 0.0048,-0.0046 0.0096,-0.01388 0.01678,-0.03031 0.02398,-0.05207 0.117972,-0.514655 1.390689,-1.507386 2.974805,-2.574605 1.419532,-0.956355 3.088483,-1.972411 4.40321,-2.758848 1.163688,-0.696355 2.049571,-1.212957 2.237916,-1.34842 0.07122,-0.05206 0.157054,-0.112689 0.250279,-0.18234 0.01678,-0.01388 0.03477,-0.02592 0.05252,-0.03957 0.012,-0.0092 0.02157,-0.0162 0.03308,-0.02499 0.625606,-0.480205 1.559685,-1.387341 1.755559,-3.296647 4.85e-4,-0.0046 0.0012,-0.0092 0.0015,-0.01388 0.0048,-0.056 0.0096,-0.112924 0.01438,-0.171005 0.0025,-0.04026 0.0048,-0.08099 0.0096,-0.12218 0.0017,-0.0317 0.0048,-0.06317 0.0048,-0.09533 0.0025,-0.07544 0.0048,-0.152261 0.0072,-0.230013 0,-0.0046 2.16e-4,-0.0092 4.85e-4,-0.01388 0.0025,-0.184889 -7.28e-4,-0.377481 -0.012,-0.579728 -0.0072,-0.112925 -0.01437,-0.214972 -0.03429,-0.307718 -9.71e-4,-0.0046 -0.0025,-0.0092 -0.0025,-0.0162 -0.0021,-0.0092 -0.0048,-0.01852 -0.0072,-0.02707 -0.0048,-0.0162 -0.0096,-0.03262 -0.01438,-0.0479 -7.28e-4,-0.0021 -0.0015,-0.0046 -0.0021,-0.0046 -0.0048,-0.01852 -0.012,-0.03517 -0.01919,-0.05183 -4.85e-4,-7.02e-4 -4.85e-4,-0.0012 -7.28e-4,-0.0018 -0.202851,-0.457733 -0.962302,-0.630658 -4.099411,-0.682006 -0.0025,-2.08e-4 -0.0048,-2.08e-4 -0.0096,-2.08e-4 -1.280079,-0.02084 -2.953921,-0.02084 -5.147649,-0.01388 -3.845771,0.01388 -5.971547,-3.62276 -6.65,-5.030229 0.930075,-4.955324 3.617698,-8.486517 8.03292,-10.881142 0.08344,-0.04535 0.06714,-0.08284 -0.03166,-0.10899 0.863248,-0.503317 -10.43849,-0.01388 -15.636751,6.357241 -4.613734,-1.105077 -8.634976,-1.030609 -12.100558,-0.246951 -0.665575,-0.01852 -1.494823,-0.09788 -2.479326,-0.29552 -2.304986,-2.012445 -5.60445,-5.729153 -5.781214,-10.16577 0,0 -0.0096,0.0092 -0.02901,0.02314 -0.0025,-0.04258 -0.0072,-0.0847 -0.0096,-0.127273 0,0 -7.022878,5.201005 -5.971762,19.380299 -0.0025,0.227005 -0.0072,0.444266 -0.01438,0.654839 -1.900575,2.484084 -2.843767,4.572058 -2.913949,5.033007 -1.6835991,3.30412 -3.3925201,8.276362 -4.783184,15.824922 0,0 0.97249,-2.97199 2.9245944,-6.338175 C 6.8517177,-12.16827 8.0779316,-2.415226 15.877947,10.937557 33.852897,37.90417 62.218844,42.88516 85.405567,34.73 108.59229,26.57483 126.59979,5.283511 123.85782,-20.294503 Z"
         id="path1526"
         inkscape:connector-curvature="0"
         style="fill:url(#linearGradient1529);stroke-width:0.23859373" />
    </clipPath>
  </defs>
  <metadata
     id="metadata4751">
    <rdf:RDF>
      <cc:Work
         rdf:about="">
        <dc:format>image/svg+xml</dc:format>
        <dc:type
           rdf:resource="http://purl.org/dc/dcmitype/StillImage" />
        <dc:title></dc:title>
      </cc:Work>
    </rdf:RDF>
  </metadata>
  <g
     id="layer1"
     inkscape:groupmode="layer"
     inkscape:label="Layer 1"
     style="display:none"
     transform="translate(0,-64)">
    <rect
       style="opacity:0.07000002;fill:#000000;fill-opacity:1;fill-rule:evenodd;stroke:none;stroke-width:1;stroke-linecap:round;stroke-linejoin:round;stroke-miterlimit:4;stroke-dasharray:none;stroke-dashoffset:0;stroke-opacity:1;paint-order:markers fill stroke"
       id="rect952"
       width="64"
       height="64"
       x="0"
       y="64" />
  </g>
  <g
     inkscape:groupmode="layer"
     id="layer2"
     inkscape:label="Layer 2"
     style="display:inline"
     transform="translate(0,-64)">
    <path
       style="opacity:1;fill:url(#linearGradient1103);fill-opacity:1;fill-rule:evenodd;stroke:none;stroke-width:11.99999905;stroke-linecap:round;stroke-linejoin:round;stroke-miterlimit:4;stroke-dasharray:none;stroke-dashoffset:0;stroke-opacity:1;paint-order:markers fill stroke"
       id="path1073"
       sodipodi:type="arc"
       sodipodi:cx="31.975515"
       sodipodi:cy="94.085678"
       sodipodi:rx="23.122164"
       sodipodi:ry="23.125013"
       sodipodi:start="5.3037065"
       sodipodi:end="5.259637"
       sodipodi:open="true"
       d="M 44.865089,74.887131 A 23.122164,23.125013 0 0 1 51.312538,106.76454 23.122164,23.125013 0 0 1 19.51202,113.56359 23.122164,23.125013 0 0 1 12.363869,81.835994 23.122164,23.125013 0 0 1 44.006882,74.337848" />
    <g
       style="color:#000000;fill:#abacae;stroke-width:0.32608694"
       transform="matrix(3.0666666,0,0,3.0666666,-1998.0222,136.44794)"
       id="g1454" />
    <path
       style="opacity:1;fill:#552b86;fill-opacity:0.98265884;fill-rule:evenodd;stroke:none;stroke-width:11.99999905;stroke-linecap:round;stroke-linejoin:round;stroke-miterlimit:4;stroke-dasharray:none;stroke-dashoffset:0;stroke-opacity:1;paint-order:markers fill stroke"
       d="m 33.273629,70.962786 a 23.122163,23.125012 0 0 0 -0.593353,0.03721 23.122163,23.125012 0 0 1 11.326425,3.337868 l 0.857984,0.548904 A 23.122163,23.125012 0 0 1 51.313005,106.7645 23.122163,23.125012 0 0 1 32.703018,117.17092 23.122163,23.125012 0 0 0 52.89976,106.7645 23.122163,23.125012 0 0 0 46.452473,74.886772 L 45.59449,74.337868 A 23.122163,23.125012 0 0 0 33.273629,70.962786 Z"
       id="path1092"
       inkscape:connector-curvature="0" />
    <path
       style="color:#000000;font-style:normal;font-variant:normal;font-weight:normal;font-stretch:normal;font-size:medium;line-height:normal;font-family:sans-serif;font-variant-ligatures:normal;font-variant-position:normal;font-variant-caps:normal;font-variant-numeric:normal;font-variant-alternates:normal;font-feature-settings:normal;text-indent:0;text-align:start;text-decoration:none;text-decoration-line:none;text-decoration-style:solid;text-decoration-color:#000000;letter-spacing:normal;word-spacing:normal;text-transform:none;writing-mode:lr-tb;direction:ltr;text-orientation:mixed;dominant-baseline:auto;baseline-shift:baseline;text-anchor:start;white-space:normal;shape-padding:0;clip-rule:nonzero;display:inline;overflow:visible;visibility:visible;opacity:1;isolation:auto;mix-blend-mode:normal;color-interpolation:sRGB;color-interpolation-filters:linearRGB;solid-color:#000000;solid-opacity:1;vector-effect:none;fill:#9bdb4d;fill-opacity:1;fill-rule:evenodd;stroke:none;stroke-width:12;stroke-linecap:round;stroke-linejoin:round;stroke-miterlimit:0;stroke-dasharray:none;stroke-dashoffset:0;stroke-opacity:1;paint-order:markers fill stroke;color-rendering:auto;image-rendering:auto;shape-rendering:auto;text-rendering:auto;enable-background:accumulate"
       d="m 45.152059,68.106629 a 3.1758929,3.1758929 0 0 0 -0.843512,0.110608 3.1758929,3.1758929 0 0 0 -0.09614,0.02377 3.1758929,3.1758929 0 0 0 -2.114983,1.935117 L 21.17295,106.41717 a 3.1758929,3.1758929 0 1 0 5.500403,3.17558 L 46.15683,75.848128 c 7.827595,6.077545 10.98845,16.586349 7.515115,26.129232 C 49.830556,112.53147 39.013939,118.77702 27.953093,116.8267 16.892248,114.87637 8.8644945,105.30812 8.864495,94.076674 a 3.1758929,3.1758929 0 1 0 -6.3511505,0 c -7e-7,14.271446 10.2831545,26.525786 24.3378075,29.004006 14.054653,2.47821 27.907303,-5.51967 32.788433,-18.93044 C 64.45091,90.931263 59.19899,76.1425 47.211221,68.888118 a 3.1758929,3.1758929 0 0 0 -2.059162,-0.781489 z"
       id="path1926"
       inkscape:connector-curvature="0" />
    <circle
       r="5.1075354"
       cy="103.57411"
       cx="41.459431"
       id="circle989"
       style="opacity:1;fill:#9bdb4d;fill-opacity:1;fill-rule:evenodd;stroke:none;stroke-width:12;stroke-linecap:round;stroke-linejoin:round;stroke-miterlimit:4;stroke-dasharray:none;stroke-dashoffset:0;stroke-opacity:1;paint-order:markers fill stroke" />
    <circle
       style="opacity:1;fill:#9bdb4d;fill-opacity:1;fill-rule:evenodd;stroke:none;stroke-width:12;stroke-linecap:round;stroke-linejoin:round;stroke-miterlimit:4;stroke-dasharray:none;stroke-dashoffset:0;stroke-opacity:1;paint-order:markers fill stroke"
       id="circle993"
       cx="20.640228"
       cy="82.754913"
       r="5.1075354" />
    <path
       style="color:#000000;font-style:normal;font-variant:normal;font-weight:normal;font-stretch:normal;font-size:medium;line-height:normal;font-family:sans-serif;font-variant-ligatures:normal;font-variant-position:normal;font-variant-caps:normal;font-variant-numeric:normal;font-variant-alternates:normal;font-feature-settings:normal;text-indent:0;text-align:start;text-decoration:none;text-decoration-line:none;text-decoration-style:solid;text-decoration-color:#000000;letter-spacing:normal;word-spacing:normal;text-transform:none;writing-mode:lr-tb;direction:ltr;text-orientation:mixed;dominant-baseline:auto;baseline-shift:baseline;text-anchor:start;white-space:normal;shape-padding:0;clip-rule:nonzero;display:inline;overflow:visible;visibility:visible;opacity:1;isolation:auto;mix-blend-mode:normal;color-interpolation:sRGB;color-interpolation-filters:linearRGB;solid-color:#000000;solid-opacity:1;vector-effect:none;fill:#3a9104;fill-opacity:1;fill-rule:evenodd;stroke:none;stroke-width:12;stroke-linecap:round;stroke-linejoin:round;stroke-miterlimit:0;stroke-dasharray:none;stroke-dashoffset:0;stroke-opacity:1;paint-order:markers fill stroke;color-rendering:auto;image-rendering:auto;shape-rendering:auto;text-rendering:auto;enable-background:accumulate"
       d="m 45.152059,68.106629 c -0.284859,-0.0011 -0.568575,0.03607 -0.843512,0.110608 -0.03217,0.0074 -0.06422,0.01535 -0.09614,0.02377 -0.972571,0.272075 -1.757764,0.990493 -2.114983,1.935117 L 21.17295,106.41717 c -1.441756,2.43623 0.783495,5.39888 3.524972,4.69307 -2.046918,-0.52953 -3.014608,-2.87388 -1.937184,-4.69307 L 43.685216,70.176129 c 0.357218,-0.944624 1.142411,-1.663042 2.114982,-1.935117 0.03192,-0.0084 0.06397,-0.01635 0.09614,-0.02377 0.0079,-0.0017 0.01584,-0.0035 0.02377,-0.0052 -0.250751,-0.06638 -0.50869,-0.101789 -0.768052,-0.105439 z m 2.59256,7.741499 H 46.15683 l 1.072997,0.892096 c 7.034638,6.177757 9.751603,16.144429 6.442118,25.237136 -3.283095,9.02022 -11.661627,14.88833 -20.932747,15.18736 9.890768,0.36163 19.050902,-5.65465 22.520537,-15.18736 3.47333,-9.542883 0.31248,-20.051687 -7.515116,-26.129232 z M 5.6413685,90.856649 c -1.752602,0.02624 -3.1525774,1.467399 -3.1280241,3.220025 -6e-7,14.271446 10.2831546,26.525786 24.3378076,29.004006 1.975385,0.34831 3.946023,0.48259 5.889079,0.43106 -1.425528,-0.0396 -2.862111,-0.1773 -4.301292,-0.43106 C 14.384287,120.60246 4.1011315,108.34812 4.1011321,94.076674 4.0819621,92.613078 5.0655675,91.325935 6.4828135,90.96002 6.208212,90.888114 5.9252095,90.853347 5.6413685,90.856649 Z"
       id="path1039"
       inkscape:connector-curvature="0"
       sodipodi:nodetypes="cccccccccccccccscscccscsccc" />
    <path
       style="opacity:1;fill:#3a9104;fill-opacity:1;fill-rule:evenodd;stroke:none;stroke-width:12;stroke-linecap:round;stroke-linejoin:round;stroke-miterlimit:4;stroke-dasharray:none;stroke-dashoffset:0;stroke-opacity:1;paint-order:markers fill stroke"
       d="m 41.459626,98.466865 a 5.1075355,5.1075355 0 0 0 -5.107591,5.107595 5.1075355,5.1075355 0 0 0 5.107591,5.10759 5.1075355,5.1075355 0 0 0 0.806297,-0.0672 5.1075355,5.1075355 0 0 1 -4.326101,-5.04039 5.1075355,5.1075355 0 0 1 4.304394,-5.041437 5.1075355,5.1075355 0 0 0 -0.78459,-0.06616 z"
       id="circle1045"
       inkscape:connector-curvature="0" />
    <path
       style="opacity:1;fill:#3a9104;fill-opacity:1;fill-rule:evenodd;stroke:none;stroke-width:12;stroke-linecap:round;stroke-linejoin:round;stroke-miterlimit:4;stroke-dasharray:none;stroke-dashoffset:0;stroke-opacity:1;paint-order:markers fill stroke"
       d="m 20.640587,77.647828 a 5.1075355,5.1075355 0 0 0 -5.107591,5.107589 5.1075355,5.1075355 0 0 0 5.107591,5.106557 5.1075355,5.1075355 0 0 0 0.805265,-0.06616 5.1075355,5.1075355 0 0 1 -4.325068,-5.040399 5.1075355,5.1075355 0 0 1 4.301292,-5.041432 5.1075355,5.1075355 0 0 0 -0.781489,-0.06616 z"
       id="circle1050"
       inkscape:connector-curvature="0" />
  </g>
  <g
     inkscape:groupmode="layer"
     id="layer3"
     inkscape:label="Layer 3"
     transform="translate(0,-64)" />
</svg>
